<svg width="52" height="60" viewBox="0 0 52 60" fill="none" xmlns="http://www.w3.org/2000/svg">
<path d="M39 7.5H19C12.0964 7.5 6.5 13.0964 6.5 20V40C6.5 46.9036 12.0964 52.5 19 52.5H39C45.9036 52.5 51.5 46.9036 51.5 40V20C51.5 13.0964 45.9036 7.5 39 7.5ZM47.125 40C47.1113 44.4816 43.4816 48.1113 39 48.125H19C14.5184 48.1113 10.8887 44.4816 10.875 40V20C10.8887 15.5184 14.5184 11.8887 19 11.875H39C43.4816 11.8887 47.1113 15.5184 47.125 20V40ZM43.375 18.125C43.375 19.5057 42.2557 20.625 40.875 20.625C39.4943 20.625 38.375 19.5057 38.375 18.125C38.375 16.7443 39.4943 15.625 40.875 15.625C42.2557 15.625 43.375 16.7443 43.375 18.125ZM29 18.75C22.7868 18.75 17.75 23.7868 17.75 30C17.75 36.2132 22.7868 41.25 29 41.25C35.2132 41.25 40.25 36.2132 40.25 30C40.2567 27.0143 39.0735 24.1489 36.9623 22.0377C34.8511 19.9265 31.9857 18.7433 29 18.75ZM29 36.875C25.203 36.875 22.125 33.797 22.125 30C22.125 26.203 25.203 23.125 29 23.125C32.797 23.125 35.875 26.203 35.875 30C35.875 33.797 32.797 36.875 29 36.875Z" fill="#C56666"/>
</svg>
